<?xml version="1.0" encoding="utf-8"?>
<!DOCTYPE svg PUBLIC "-//W3C//DTD SVG 1.1//EN" "http://www.w3.org/Graphics/SVG/1.1/DTD/svg11.dtd">
<svg version="1.1"
     xmlns="http://www.w3.org/2000/svg"
     xmlns:xlink="http://www.w3.org/1999/xlink"
     viewBox="61 61 500 500">
  <path fill="#828282" fill-rule="evenodd"
        d="M247.434,75.511c64.593-6.113,130.795-3.274,193.46,14.484c22.37,7.241,46.774,15.562,61.586,34.979c7.188,8.476,4.186,19.907,3.106,29.83c-10.081,62.661-20.922,125.217-31.702,187.718c-3.431,18.075-21.089,28.057-35.842,36.265c-53.753,26.446-115.825,30.849-174.677,25.157c-39.485-5.144-80.845-14.428-112.604-39.858c-15.558-11.157-14.698-31.652-18.188-48.438c-9.338-58.961-21.406-117.546-28.544-176.72c3.542-25.805,32.514-36.323,53.76-44.903C186.702,83.988,217.016,78.571,247.434,75.511z
           M222.538,111.562c53.596-8.532,108.532-8.369,162.18-0.373c18.726,3.698,40.343,6.062,52.791,22.423c-17.704,17.865-44.261,19.258-67.7,23.067c-42.604,4.615-85.785,4.454-128.383-0.214c-23.498-3.536-49.518-5.686-67.76-22.854C184.723,117.732,205.051,115.265,222.538,111.562z
           z
           M280.483,238.116c37.018-17.487,84.813,10.091,88.519,50.646c5.796,34.872-22.645,70.173-57.78,72.314c-34.762,4.135-68.993-25.536-69.478-60.563C239.656,274.172,256.342,248.155,280.483,238.116z
           M290.511,268.757c19.103-11.59,46.941,3.912,46.837,26.282c3.271,23.874-25.966,42.757-46.461,30.478  C268.033,315.646,268.033,279.108,290.511,268.757z"/>
  <path fill="#828282" d="M155.371,402.446l5.041-2.472c85.407,56.389,204.773,56.389,290.24,0.056c13.413,3.862,3.433,20.387,3.274,29.88c-8.157,28.061-3.06,66.421-33.321,82.354c-50.967,28.705-113.142,30.257-169.684,21.348c-29.562-6.38-64.755-14.693-81.012-42.917c-7.3-27.358-11.805-55.578-16.361-83.528L155.371,402.446z"/>
</svg>